<mxfile host="app.diagrams.net" modified="2021-01-19T05:51:28.131Z" agent="5.0 (Windows NT 10.0; Win64; x64) AppleWebKit/537.36 (KHTML, like Gecko) Chrome/87.0.4280.141 Safari/537.36" etag="WAvMnz99OEDkxc93Guw8" version="14.1.8" type="github">
  <diagram id="RCrtotf_OM2YPNhnRVai" name="Page-1">
    <mxGraphModel dx="1554" dy="1387" grid="1" gridSize="10" guides="1" tooltips="1" connect="1" arrows="1" fold="1" page="1" pageScale="1" pageWidth="1169" pageHeight="827" math="0" shadow="0">
      <root>
        <mxCell id="0" />
        <mxCell id="1" parent="0" />
        <mxCell id="_S2pbEpNZDqIVIiWVbUG-1" value="&lt;b&gt;&lt;font style=&quot;font-size: 17px&quot;&gt;kernel&lt;/font&gt;&lt;/b&gt;" style="rounded=0;whiteSpace=wrap;html=1;fillColor=#B2C9AB;strokeColor=#788AA3;fontColor=#46495D;" vertex="1" parent="1">
          <mxGeometry x="95" y="220" width="370" height="60" as="geometry" />
        </mxCell>
        <mxCell id="_S2pbEpNZDqIVIiWVbUG-2" value="&lt;b&gt;&lt;font style=&quot;font-size: 15px&quot;&gt;user&lt;/font&gt;&lt;/b&gt;" style="rounded=0;whiteSpace=wrap;html=1;fillColor=#B2C9AB;strokeColor=#788AA3;fontColor=#46495D;" vertex="1" parent="1">
          <mxGeometry x="95" y="50" width="370" height="60" as="geometry" />
        </mxCell>
        <mxCell id="_S2pbEpNZDqIVIiWVbUG-3" value="buffer" style="rounded=0;whiteSpace=wrap;html=1;fillColor=#B2C9AB;strokeColor=#788AA3;fontColor=#46495D;" vertex="1" parent="1">
          <mxGeometry x="115" y="50" width="110" height="60" as="geometry" />
        </mxCell>
        <mxCell id="_S2pbEpNZDqIVIiWVbUG-4" value="socket buffer" style="rounded=0;whiteSpace=wrap;html=1;fillColor=#B2C9AB;strokeColor=#788AA3;fontColor=#46495D;" vertex="1" parent="1">
          <mxGeometry x="325" y="220" width="120" height="60" as="geometry" />
        </mxCell>
        <mxCell id="_S2pbEpNZDqIVIiWVbUG-5" value="page buffer" style="rounded=0;whiteSpace=wrap;html=1;fillColor=#B2C9AB;strokeColor=#788AA3;fontColor=#46495D;" vertex="1" parent="1">
          <mxGeometry x="115" y="220" width="120" height="60" as="geometry" />
        </mxCell>
        <mxCell id="_S2pbEpNZDqIVIiWVbUG-7" value="socket" style="rounded=0;whiteSpace=wrap;html=1;fillColor=#B2C9AB;strokeColor=#788AA3;fontColor=#46495D;" vertex="1" parent="1">
          <mxGeometry x="325" y="384" width="120" height="60" as="geometry" />
        </mxCell>
        <mxCell id="_S2pbEpNZDqIVIiWVbUG-9" style="edgeStyle=orthogonalEdgeStyle;rounded=0;orthogonalLoop=1;jettySize=auto;html=1;exitX=0.5;exitY=1;exitDx=0;exitDy=0;exitPerimeter=0;strokeColor=#788AA3;fontColor=#46495D;" edge="1" parent="1">
          <mxGeometry relative="1" as="geometry">
            <mxPoint x="75" y="454" as="sourcePoint" />
            <mxPoint x="75" y="454" as="targetPoint" />
          </mxGeometry>
        </mxCell>
        <mxCell id="_S2pbEpNZDqIVIiWVbUG-10" value="disk" style="shape=datastore;whiteSpace=wrap;html=1;fillColor=#B2C9AB;strokeColor=#788AA3;fontColor=#46495D;" vertex="1" parent="1">
          <mxGeometry x="125" y="390" width="60" height="60" as="geometry" />
        </mxCell>
        <mxCell id="_S2pbEpNZDqIVIiWVbUG-11" value="" style="shape=singleArrow;direction=north;whiteSpace=wrap;html=1;fillColor=#B2C9AB;strokeColor=#788AA3;fontColor=#46495D;" vertex="1" parent="1">
          <mxGeometry x="125" y="280" width="60" height="100" as="geometry" />
        </mxCell>
        <mxCell id="_S2pbEpNZDqIVIiWVbUG-12" value="" style="shape=singleArrow;direction=south;whiteSpace=wrap;html=1;fillColor=#B2C9AB;strokeColor=#788AA3;fontColor=#46495D;" vertex="1" parent="1">
          <mxGeometry x="355" y="284" width="60" height="100" as="geometry" />
        </mxCell>
        <mxCell id="_S2pbEpNZDqIVIiWVbUG-13" value="" style="shape=singleArrow;direction=north;whiteSpace=wrap;html=1;fillColor=#B2C9AB;strokeColor=#788AA3;fontColor=#46495D;" vertex="1" parent="1">
          <mxGeometry x="125" y="110" width="60" height="100" as="geometry" />
        </mxCell>
        <mxCell id="_S2pbEpNZDqIVIiWVbUG-15" value="" style="shape=singleArrow;direction=south;whiteSpace=wrap;html=1;fillColor=#B2C9AB;strokeColor=#788AA3;fontColor=#46495D;" vertex="1" parent="1">
          <mxGeometry x="355" y="110" width="60" height="100" as="geometry" />
        </mxCell>
        <mxCell id="_S2pbEpNZDqIVIiWVbUG-16" value="1.DMA copy" style="text;html=1;align=center;verticalAlign=middle;resizable=0;points=[];autosize=1;fontColor=#46495D;" vertex="1" parent="1">
          <mxGeometry x="65" y="320" width="80" height="20" as="geometry" />
        </mxCell>
        <mxCell id="_S2pbEpNZDqIVIiWVbUG-17" value="2.cpu copy" style="text;html=1;align=center;verticalAlign=middle;resizable=0;points=[];autosize=1;fontColor=#46495D;" vertex="1" parent="1">
          <mxGeometry x="40" y="150" width="70" height="20" as="geometry" />
        </mxCell>
        <mxCell id="_S2pbEpNZDqIVIiWVbUG-18" value="3.cpu copy" style="text;html=1;align=center;verticalAlign=middle;resizable=0;points=[];autosize=1;fontColor=#46495D;" vertex="1" parent="1">
          <mxGeometry x="390" y="140" width="70" height="20" as="geometry" />
        </mxCell>
        <mxCell id="_S2pbEpNZDqIVIiWVbUG-19" value="4.DMA copy" style="text;html=1;align=center;verticalAlign=middle;resizable=0;points=[];autosize=1;fontColor=#46495D;" vertex="1" parent="1">
          <mxGeometry x="405" y="310" width="80" height="20" as="geometry" />
        </mxCell>
        <mxCell id="_S2pbEpNZDqIVIiWVbUG-20" value="1.user-&amp;gt; kernel" style="text;html=1;align=center;verticalAlign=middle;resizable=0;points=[];autosize=1;fontColor=#46495D;" vertex="1" parent="1">
          <mxGeometry x="35" y="350" width="100" height="20" as="geometry" />
        </mxCell>
        <mxCell id="_S2pbEpNZDqIVIiWVbUG-21" value="2.kernel-&amp;gt;user" style="text;html=1;align=center;verticalAlign=middle;resizable=0;points=[];autosize=1;fontColor=#46495D;" vertex="1" parent="1">
          <mxGeometry x="10" y="170" width="90" height="20" as="geometry" />
        </mxCell>
        <mxCell id="_S2pbEpNZDqIVIiWVbUG-22" value="3.user-&amp;gt;kernel" style="text;html=1;align=center;verticalAlign=middle;resizable=0;points=[];autosize=1;fontColor=#46495D;" vertex="1" parent="1">
          <mxGeometry x="400" y="160" width="90" height="20" as="geometry" />
        </mxCell>
        <mxCell id="_S2pbEpNZDqIVIiWVbUG-23" value="4.kernel-&amp;gt;user" style="text;html=1;align=center;verticalAlign=middle;resizable=0;points=[];autosize=1;fontColor=#46495D;" vertex="1" parent="1">
          <mxGeometry x="400" y="330" width="90" height="20" as="geometry" />
        </mxCell>
        <mxCell id="_S2pbEpNZDqIVIiWVbUG-24" value="&lt;b style=&quot;font-size: 16px&quot;&gt;&lt;font style=&quot;font-size: 16px&quot;&gt;普通io &lt;br&gt;4次上下文切换&lt;br&gt;&lt;/font&gt;&lt;/b&gt;&lt;div style=&quot;font-size: 16px&quot;&gt;&lt;b&gt;&lt;font style=&quot;font-size: 16px&quot;&gt;4次数据copy&lt;/font&gt;&lt;/b&gt;&lt;/div&gt;" style="text;html=1;align=left;verticalAlign=middle;resizable=0;points=[];autosize=1;fontColor=#46495D;" vertex="1" parent="1">
          <mxGeometry x="225" y="-40" width="120" height="50" as="geometry" />
        </mxCell>
        <mxCell id="_S2pbEpNZDqIVIiWVbUG-25" value="&lt;b&gt;&lt;font style=&quot;font-size: 17px&quot;&gt;kernel&lt;/font&gt;&lt;/b&gt;" style="rounded=0;whiteSpace=wrap;html=1;fillColor=#B2C9AB;strokeColor=#788AA3;fontColor=#46495D;" vertex="1" parent="1">
          <mxGeometry x="560" y="215" width="370" height="60" as="geometry" />
        </mxCell>
        <mxCell id="_S2pbEpNZDqIVIiWVbUG-26" value="&lt;b&gt;&lt;font style=&quot;font-size: 15px&quot;&gt;user&lt;/font&gt;&lt;/b&gt;" style="rounded=0;whiteSpace=wrap;html=1;fillColor=#B2C9AB;strokeColor=#788AA3;fontColor=#46495D;" vertex="1" parent="1">
          <mxGeometry x="560" y="45" width="370" height="60" as="geometry" />
        </mxCell>
        <mxCell id="_S2pbEpNZDqIVIiWVbUG-27" value="buffer" style="rounded=0;whiteSpace=wrap;html=1;fillColor=#B2C9AB;strokeColor=#788AA3;fontColor=#46495D;" vertex="1" parent="1">
          <mxGeometry x="580" y="45" width="110" height="60" as="geometry" />
        </mxCell>
        <mxCell id="_S2pbEpNZDqIVIiWVbUG-28" value="socket buffer" style="rounded=0;whiteSpace=wrap;html=1;fillColor=#B2C9AB;strokeColor=#788AA3;fontColor=#46495D;" vertex="1" parent="1">
          <mxGeometry x="790" y="215" width="120" height="60" as="geometry" />
        </mxCell>
        <mxCell id="_S2pbEpNZDqIVIiWVbUG-50" style="edgeStyle=orthogonalEdgeStyle;curved=0;rounded=1;sketch=0;orthogonalLoop=1;jettySize=auto;html=1;entryX=0.5;entryY=0;entryDx=0;entryDy=0;strokeColor=#788AA3;fillColor=#B2C9AB;fontColor=#46495D;exitX=0.5;exitY=0;exitDx=0;exitDy=0;" edge="1" parent="1" source="_S2pbEpNZDqIVIiWVbUG-29" target="_S2pbEpNZDqIVIiWVbUG-28">
          <mxGeometry relative="1" as="geometry" />
        </mxCell>
        <mxCell id="_S2pbEpNZDqIVIiWVbUG-29" value="page buffer" style="rounded=0;whiteSpace=wrap;html=1;fillColor=#B2C9AB;strokeColor=#788AA3;fontColor=#46495D;" vertex="1" parent="1">
          <mxGeometry x="580" y="215" width="120" height="60" as="geometry" />
        </mxCell>
        <mxCell id="_S2pbEpNZDqIVIiWVbUG-30" value="socket" style="rounded=0;whiteSpace=wrap;html=1;fillColor=#B2C9AB;strokeColor=#788AA3;fontColor=#46495D;" vertex="1" parent="1">
          <mxGeometry x="790" y="379" width="120" height="60" as="geometry" />
        </mxCell>
        <mxCell id="_S2pbEpNZDqIVIiWVbUG-31" style="edgeStyle=orthogonalEdgeStyle;rounded=0;orthogonalLoop=1;jettySize=auto;html=1;exitX=0.5;exitY=1;exitDx=0;exitDy=0;exitPerimeter=0;strokeColor=#788AA3;fontColor=#46495D;" edge="1" parent="1">
          <mxGeometry relative="1" as="geometry">
            <mxPoint x="540" y="449" as="sourcePoint" />
            <mxPoint x="540" y="449" as="targetPoint" />
          </mxGeometry>
        </mxCell>
        <mxCell id="_S2pbEpNZDqIVIiWVbUG-32" value="disk" style="shape=datastore;whiteSpace=wrap;html=1;fillColor=#B2C9AB;strokeColor=#788AA3;fontColor=#46495D;" vertex="1" parent="1">
          <mxGeometry x="590" y="385" width="60" height="60" as="geometry" />
        </mxCell>
        <mxCell id="_S2pbEpNZDqIVIiWVbUG-33" value="" style="shape=singleArrow;direction=north;whiteSpace=wrap;html=1;fillColor=#B2C9AB;strokeColor=#788AA3;fontColor=#46495D;" vertex="1" parent="1">
          <mxGeometry x="590" y="275" width="60" height="100" as="geometry" />
        </mxCell>
        <mxCell id="_S2pbEpNZDqIVIiWVbUG-34" value="" style="shape=singleArrow;direction=south;whiteSpace=wrap;html=1;fillColor=#B2C9AB;strokeColor=#788AA3;fontColor=#46495D;" vertex="1" parent="1">
          <mxGeometry x="820" y="279" width="60" height="100" as="geometry" />
        </mxCell>
        <mxCell id="_S2pbEpNZDqIVIiWVbUG-37" value="1.DMA copy" style="text;html=1;align=center;verticalAlign=middle;resizable=0;points=[];autosize=1;fontColor=#46495D;" vertex="1" parent="1">
          <mxGeometry x="530" y="315" width="80" height="20" as="geometry" />
        </mxCell>
        <mxCell id="_S2pbEpNZDqIVIiWVbUG-40" value="3.DMA copy" style="text;html=1;align=center;verticalAlign=middle;resizable=0;points=[];autosize=1;fontColor=#46495D;" vertex="1" parent="1">
          <mxGeometry x="870" y="305" width="80" height="20" as="geometry" />
        </mxCell>
        <mxCell id="_S2pbEpNZDqIVIiWVbUG-41" value="1.user-&amp;gt; kernel" style="text;html=1;align=center;verticalAlign=middle;resizable=0;points=[];autosize=1;fontColor=#46495D;" vertex="1" parent="1">
          <mxGeometry x="500" y="345" width="100" height="20" as="geometry" />
        </mxCell>
        <mxCell id="_S2pbEpNZDqIVIiWVbUG-44" value="2.kernel-&amp;gt;user" style="text;html=1;align=center;verticalAlign=middle;resizable=0;points=[];autosize=1;fontColor=#46495D;" vertex="1" parent="1">
          <mxGeometry x="865" y="325" width="90" height="20" as="geometry" />
        </mxCell>
        <mxCell id="_S2pbEpNZDqIVIiWVbUG-45" value="&lt;b style=&quot;font-size: 16px&quot;&gt;&lt;font style=&quot;font-size: 16px&quot;&gt;mmp&lt;br&gt;2次上下文切换&lt;br&gt;&lt;/font&gt;&lt;/b&gt;&lt;div style=&quot;font-size: 16px&quot;&gt;&lt;b&gt;&lt;font style=&quot;font-size: 16px&quot;&gt;3次数据copy&lt;/font&gt;&lt;/b&gt;&lt;/div&gt;" style="text;html=1;align=left;verticalAlign=middle;resizable=0;points=[];autosize=1;fontColor=#46495D;" vertex="1" parent="1">
          <mxGeometry x="690" y="-45" width="120" height="50" as="geometry" />
        </mxCell>
        <mxCell id="_S2pbEpNZDqIVIiWVbUG-47" value="" style="endArrow=classic;startArrow=classic;html=1;strokeColor=#788AA3;fillColor=#B2C9AB;fontColor=#46495D;" edge="1" parent="1" source="_S2pbEpNZDqIVIiWVbUG-29">
          <mxGeometry width="50" height="50" relative="1" as="geometry">
            <mxPoint x="630" y="155" as="sourcePoint" />
            <mxPoint x="680" y="105" as="targetPoint" />
          </mxGeometry>
        </mxCell>
        <mxCell id="_S2pbEpNZDqIVIiWVbUG-48" value="share" style="text;html=1;align=center;verticalAlign=middle;resizable=0;points=[];autosize=1;fontColor=#46495D;" vertex="1" parent="1">
          <mxGeometry x="655" y="155" width="50" height="20" as="geometry" />
        </mxCell>
        <mxCell id="_S2pbEpNZDqIVIiWVbUG-51" value="2.cpu copy" style="text;html=1;align=center;verticalAlign=middle;resizable=0;points=[];autosize=1;fontColor=#46495D;" vertex="1" parent="1">
          <mxGeometry x="695" y="165" width="70" height="20" as="geometry" />
        </mxCell>
        <mxCell id="_S2pbEpNZDqIVIiWVbUG-52" value="&lt;b&gt;&lt;font style=&quot;font-size: 17px&quot;&gt;kernel&lt;/font&gt;&lt;/b&gt;" style="rounded=0;whiteSpace=wrap;html=1;fillColor=#B2C9AB;strokeColor=#788AA3;fontColor=#46495D;" vertex="1" parent="1">
          <mxGeometry x="1000" y="215" width="370" height="60" as="geometry" />
        </mxCell>
        <mxCell id="_S2pbEpNZDqIVIiWVbUG-55" value="socket buffer" style="rounded=0;whiteSpace=wrap;html=1;fillColor=#B2C9AB;strokeColor=#788AA3;fontColor=#46495D;" vertex="1" parent="1">
          <mxGeometry x="1230" y="215" width="120" height="60" as="geometry" />
        </mxCell>
        <mxCell id="_S2pbEpNZDqIVIiWVbUG-56" style="edgeStyle=orthogonalEdgeStyle;curved=0;rounded=1;sketch=0;orthogonalLoop=1;jettySize=auto;html=1;entryX=0.5;entryY=0;entryDx=0;entryDy=0;strokeColor=#788AA3;fillColor=#B2C9AB;fontColor=#46495D;exitX=0.5;exitY=0;exitDx=0;exitDy=0;" edge="1" parent="1" source="_S2pbEpNZDqIVIiWVbUG-57" target="_S2pbEpNZDqIVIiWVbUG-55">
          <mxGeometry relative="1" as="geometry" />
        </mxCell>
        <mxCell id="_S2pbEpNZDqIVIiWVbUG-72" value="" style="edgeStyle=orthogonalEdgeStyle;curved=0;rounded=1;sketch=0;orthogonalLoop=1;jettySize=auto;html=1;strokeColor=#788AA3;fillColor=#B2C9AB;fontColor=#46495D;" edge="1" parent="1" source="_S2pbEpNZDqIVIiWVbUG-57" target="_S2pbEpNZDqIVIiWVbUG-55">
          <mxGeometry relative="1" as="geometry" />
        </mxCell>
        <mxCell id="_S2pbEpNZDqIVIiWVbUG-57" value="page buffer" style="rounded=0;whiteSpace=wrap;html=1;fillColor=#B2C9AB;strokeColor=#788AA3;fontColor=#46495D;" vertex="1" parent="1">
          <mxGeometry x="1020" y="215" width="120" height="60" as="geometry" />
        </mxCell>
        <mxCell id="_S2pbEpNZDqIVIiWVbUG-58" value="socket" style="rounded=0;whiteSpace=wrap;html=1;fillColor=#B2C9AB;strokeColor=#788AA3;fontColor=#46495D;" vertex="1" parent="1">
          <mxGeometry x="1230" y="379" width="120" height="60" as="geometry" />
        </mxCell>
        <mxCell id="_S2pbEpNZDqIVIiWVbUG-59" style="edgeStyle=orthogonalEdgeStyle;rounded=0;orthogonalLoop=1;jettySize=auto;html=1;exitX=0.5;exitY=1;exitDx=0;exitDy=0;exitPerimeter=0;strokeColor=#788AA3;fontColor=#46495D;" edge="1" parent="1">
          <mxGeometry relative="1" as="geometry">
            <mxPoint x="980" y="449" as="sourcePoint" />
            <mxPoint x="980" y="449" as="targetPoint" />
          </mxGeometry>
        </mxCell>
        <mxCell id="_S2pbEpNZDqIVIiWVbUG-60" value="disk" style="shape=datastore;whiteSpace=wrap;html=1;fillColor=#B2C9AB;strokeColor=#788AA3;fontColor=#46495D;" vertex="1" parent="1">
          <mxGeometry x="1030" y="385" width="60" height="60" as="geometry" />
        </mxCell>
        <mxCell id="_S2pbEpNZDqIVIiWVbUG-61" value="" style="shape=singleArrow;direction=north;whiteSpace=wrap;html=1;fillColor=#B2C9AB;strokeColor=#788AA3;fontColor=#46495D;" vertex="1" parent="1">
          <mxGeometry x="1030" y="275" width="60" height="100" as="geometry" />
        </mxCell>
        <mxCell id="_S2pbEpNZDqIVIiWVbUG-62" value="" style="shape=singleArrow;direction=south;whiteSpace=wrap;html=1;fillColor=#B2C9AB;strokeColor=#788AA3;fontColor=#46495D;" vertex="1" parent="1">
          <mxGeometry x="1260" y="279" width="60" height="100" as="geometry" />
        </mxCell>
        <mxCell id="_S2pbEpNZDqIVIiWVbUG-63" value="1.DMA copy" style="text;html=1;align=center;verticalAlign=middle;resizable=0;points=[];autosize=1;fontColor=#46495D;" vertex="1" parent="1">
          <mxGeometry x="970" y="315" width="80" height="20" as="geometry" />
        </mxCell>
        <mxCell id="_S2pbEpNZDqIVIiWVbUG-64" value="2.DMA copy" style="text;html=1;align=center;verticalAlign=middle;resizable=0;points=[];autosize=1;fontColor=#46495D;" vertex="1" parent="1">
          <mxGeometry x="1310" y="305" width="80" height="20" as="geometry" />
        </mxCell>
        <mxCell id="_S2pbEpNZDqIVIiWVbUG-65" value="2.kernel-&amp;gt;user" style="text;html=1;align=center;verticalAlign=middle;resizable=0;points=[];autosize=1;fontColor=#46495D;" vertex="1" parent="1">
          <mxGeometry x="1305" y="325" width="90" height="20" as="geometry" />
        </mxCell>
        <mxCell id="_S2pbEpNZDqIVIiWVbUG-66" value="&lt;b style=&quot;font-size: 16px&quot;&gt;&lt;font style=&quot;font-size: 16px&quot;&gt;sendfile&lt;br&gt;2次上下文切换&lt;br&gt;&lt;/font&gt;&lt;/b&gt;&lt;div style=&quot;font-size: 16px&quot;&gt;&lt;b&gt;&lt;font style=&quot;font-size: 16px&quot;&gt;2次数据copy&lt;/font&gt;&lt;/b&gt;&lt;/div&gt;" style="text;html=1;align=left;verticalAlign=middle;resizable=0;points=[];autosize=1;fontColor=#46495D;" vertex="1" parent="1">
          <mxGeometry x="1140" y="-40" width="120" height="50" as="geometry" />
        </mxCell>
        <mxCell id="_S2pbEpNZDqIVIiWVbUG-69" value="2.DMA copy文件描述符" style="text;html=1;align=center;verticalAlign=middle;resizable=0;points=[];autosize=1;fontColor=#46495D;" vertex="1" parent="1">
          <mxGeometry x="1100" y="165" width="140" height="20" as="geometry" />
        </mxCell>
      </root>
    </mxGraphModel>
  </diagram>
</mxfile>
